<mxfile host="app.diagrams.net" modified="2024-03-07T11:34:34.052Z" agent="Mozilla/5.0 (Windows NT 10.0; Win64; x64; rv:123.0) Gecko/20100101 Firefox/123.0" etag="DGINTrPW4KQn8lUE9CS1" version="23.1.6" type="device">
  <diagram name="Page-1" id="7a6c530e-6e37-e111-ec74-82921da8cc10">
    <mxGraphModel dx="1434" dy="726" grid="1" gridSize="10" guides="1" tooltips="1" connect="1" arrows="1" fold="1" page="1" pageScale="1.5" pageWidth="1169" pageHeight="826" background="#184380" math="0" shadow="0">
      <root>
        <mxCell id="0" style=";html=1;" />
        <mxCell id="1" style=";html=1;" parent="0" />
        <mxCell id="23046e2b9bb16c14-116" value="Azure cloud production ready web app infrastructure" style="whiteSpace=wrap;html=1;rounded=1;shadow=0;strokeColor=none;strokeWidth=2;fillColor=#009BFF;fontSize=20;fontColor=#FFFFFF;align=center;arcSize=3;verticalAlign=top;spacingTop=4;dashed=1;" parent="1" vertex="1">
          <mxGeometry x="430" y="191.75" width="800" height="608.25" as="geometry" />
        </mxCell>
        <mxCell id="-SQZJ0c6rnRIJNGKQr0r-9" value="" style="rounded=1;whiteSpace=wrap;html=1;shadow=0;strokeWidth=2;fillColor=#66B2FF;fontSize=12;align=center;strokeColor=#001DBC;arcSize=3;fontColor=#ffffff;labelBackgroundColor=none;glass=0;" parent="1" vertex="1">
          <mxGeometry x="440" y="240" width="780" height="460" as="geometry" />
        </mxCell>
        <mxCell id="23046e2b9bb16c14-27" value="" style="rounded=1;whiteSpace=wrap;html=1;shadow=0;strokeWidth=2;fillColor=#0050ef;fontSize=12;align=center;strokeColor=#001DBC;arcSize=8;fontColor=#ffffff;" parent="1" vertex="1">
          <mxGeometry x="453.5" y="272.88" width="756.5" height="417.12" as="geometry" />
        </mxCell>
        <mxCell id="23046e2b9bb16c14-78" style="edgeStyle=orthogonalEdgeStyle;html=1;startArrow=none;startFill=0;startSize=10;endArrow=none;endFill=0;endSize=10;strokeWidth=3;fontSize=11;fontColor=#FFFFFF;strokeColor=#FFFFFF;rounded=0;" parent="1" edge="1">
          <mxGeometry relative="1" as="geometry">
            <mxPoint x="1161" y="566" as="targetPoint" />
          </mxGeometry>
        </mxCell>
        <mxCell id="23046e2b9bb16c14-79" style="html=1;startArrow=none;startFill=0;startSize=10;endArrow=none;endFill=0;endSize=10;strokeWidth=3;fontSize=11;fontColor=#FFFFFF;strokeColor=#FFFFFF;rounded=0;exitX=0.796;exitY=0.241;exitPerimeter=0;" parent="1" edge="1">
          <mxGeometry relative="1" as="geometry">
            <mxPoint x="1161" y="529.6320598006646" as="targetPoint" />
          </mxGeometry>
        </mxCell>
        <mxCell id="23046e2b9bb16c14-80" style="html=1;startArrow=none;startFill=0;startSize=10;endArrow=none;endFill=0;endSize=10;strokeWidth=3;fontSize=11;fontColor=#FFFFFF;strokeColor=#FFFFFF;rounded=0;exitX=0.789;exitY=0.767;exitPerimeter=0;" parent="1" edge="1">
          <mxGeometry relative="1" as="geometry">
            <mxPoint x="1161" y="602.0421139554087" as="targetPoint" />
          </mxGeometry>
        </mxCell>
        <mxCell id="23046e2b9bb16c14-117" style="edgeStyle=orthogonalEdgeStyle;rounded=0;elbow=vertical;html=1;startArrow=none;startFill=0;startSize=10;endArrow=none;endFill=0;endSize=10;strokeColor=#FFFFFF;strokeWidth=3;fontSize=20;fontColor=#FFFFFF;entryX=0.004;entryY=0.516;entryPerimeter=0;" parent="1" edge="1">
          <mxGeometry relative="1" as="geometry">
            <mxPoint x="1336.1999999999998" y="556.8" as="targetPoint" />
            <Array as="points">
              <mxPoint x="1326" y="673" />
              <mxPoint x="1326" y="557" />
            </Array>
          </mxGeometry>
        </mxCell>
        <mxCell id="23046e2b9bb16c14-119" style="edgeStyle=orthogonalEdgeStyle;rounded=0;elbow=vertical;html=1;entryX=-0.002;entryY=0.494;entryPerimeter=0;startArrow=none;startFill=0;startSize=10;endArrow=none;endFill=0;endSize=10;strokeColor=#FFFFFF;strokeWidth=3;fontSize=20;fontColor=#FFFFFF;" parent="1" edge="1">
          <mxGeometry relative="1" as="geometry">
            <Array as="points">
              <mxPoint x="1326" y="673" />
              <mxPoint x="1326" y="395" />
            </Array>
            <mxPoint x="1335.9" y="394.70000000000005" as="targetPoint" />
          </mxGeometry>
        </mxCell>
        <mxCell id="WDswVMyWX-4o-N1va52p-4" value="&lt;div&gt;App service plan&lt;/div&gt;" style="image;aspect=fixed;html=1;points=[];align=center;fontSize=12;image=img/lib/azure2/app_services/App_Service_Plans.svg;" parent="1" vertex="1">
          <mxGeometry x="510" y="376" width="64" height="64" as="geometry" />
        </mxCell>
        <mxCell id="-SQZJ0c6rnRIJNGKQr0r-3" value="&lt;font size=&quot;1&quot; color=&quot;#ffffff&quot;&gt;&lt;b style=&quot;font-size: 18px;&quot;&gt;Resource group&lt;/b&gt;&lt;/font&gt;" style="text;strokeColor=none;align=center;fillColor=none;html=1;verticalAlign=middle;whiteSpace=wrap;rounded=0;" parent="1" vertex="1">
          <mxGeometry x="453.5" y="280" width="170" height="30" as="geometry" />
        </mxCell>
        <mxCell id="-SQZJ0c6rnRIJNGKQr0r-5" value="Storage account" style="image;aspect=fixed;html=1;points=[];align=center;fontSize=12;image=img/lib/azure2/storage/Storage_Accounts.svg;" parent="1" vertex="1">
          <mxGeometry x="669" y="290" width="65" height="52" as="geometry" />
        </mxCell>
        <mxCell id="-SQZJ0c6rnRIJNGKQr0r-6" value="Managed identity" style="image;aspect=fixed;html=1;points=[];align=center;fontSize=12;image=img/lib/azure2/identity/Managed_Identities.svg;" parent="1" vertex="1">
          <mxGeometry x="850" y="290" width="68" height="66" as="geometry" />
        </mxCell>
        <mxCell id="-SQZJ0c6rnRIJNGKQr0r-10" value="&lt;font style=&quot;font-size: 18px;&quot; color=&quot;#ffffff&quot;&gt;&lt;b&gt;Subscription&lt;/b&gt;&lt;/font&gt;&lt;font style=&quot;font-size: 18px;&quot; color=&quot;#ffffff&quot;&gt;&lt;b&gt;&lt;br&gt;&lt;/b&gt;&lt;/font&gt;" style="text;strokeColor=none;align=center;fillColor=none;html=1;verticalAlign=middle;whiteSpace=wrap;rounded=0;" parent="1" vertex="1">
          <mxGeometry x="430" y="240" width="170" height="30" as="geometry" />
        </mxCell>
        <mxCell id="_pkvCdZ7tY0LbxpV6T6h-2" value="Back-end app" style="image;aspect=fixed;html=1;points=[];align=center;fontSize=12;image=img/lib/azure2/app_services/App_Services.svg;" vertex="1" parent="1">
          <mxGeometry x="1036" y="290" width="64" height="64" as="geometry" />
        </mxCell>
        <mxCell id="_pkvCdZ7tY0LbxpV6T6h-3" value="" style="edgeStyle=none;orthogonalLoop=1;jettySize=auto;html=1;rounded=0;strokeColor=none;" edge="1" parent="1">
          <mxGeometry width="80" relative="1" as="geometry">
            <mxPoint x="580" y="430" as="sourcePoint" />
            <mxPoint x="660" y="430" as="targetPoint" />
            <Array as="points" />
          </mxGeometry>
        </mxCell>
        <mxCell id="_pkvCdZ7tY0LbxpV6T6h-4" value="" style="endArrow=none;html=1;rounded=0;strokeColor=#FFFFFF;strokeWidth=2;" edge="1" parent="1">
          <mxGeometry width="50" height="50" relative="1" as="geometry">
            <mxPoint x="843" y="333.57" as="sourcePoint" />
            <mxPoint x="742.5" y="332.43" as="targetPoint" />
          </mxGeometry>
        </mxCell>
        <mxCell id="_pkvCdZ7tY0LbxpV6T6h-5" value="Virtual Network" style="image;aspect=fixed;html=1;points=[];align=center;fontSize=12;image=img/lib/azure2/networking/Virtual_Networks_Classic.svg;" vertex="1" parent="1">
          <mxGeometry x="690" y="490" width="67" height="40" as="geometry" />
        </mxCell>
        <mxCell id="_pkvCdZ7tY0LbxpV6T6h-6" value="" style="rounded=0;whiteSpace=wrap;html=1;strokeWidth=2;fillColor=none;strokeColor=#FFFFFF;" vertex="1" parent="1">
          <mxGeometry x="680" y="550" width="480" height="120" as="geometry" />
        </mxCell>
        <mxCell id="_pkvCdZ7tY0LbxpV6T6h-7" value="subnet integrazione" style="image;aspect=fixed;html=1;points=[];align=center;fontSize=12;image=img/lib/azure2/networking/Subnet.svg;" vertex="1" parent="1">
          <mxGeometry x="734" y="578.78" width="68" height="40.72" as="geometry" />
        </mxCell>
        <mxCell id="_pkvCdZ7tY0LbxpV6T6h-8" value="subnet endpoint" style="image;aspect=fixed;html=1;points=[];align=center;fontSize=12;image=img/lib/azure2/networking/Subnet.svg;" vertex="1" parent="1">
          <mxGeometry x="1040" y="579" width="68" height="40.72" as="geometry" />
        </mxCell>
        <mxCell id="_pkvCdZ7tY0LbxpV6T6h-9" value="" style="rounded=0;whiteSpace=wrap;html=1;fillColor=none;strokeColor=#FFFFFF;" vertex="1" parent="1">
          <mxGeometry x="690" y="560" width="150" height="100" as="geometry" />
        </mxCell>
        <mxCell id="_pkvCdZ7tY0LbxpV6T6h-10" value="" style="rounded=0;whiteSpace=wrap;html=1;fillColor=none;strokeColor=#FFFFFF;" vertex="1" parent="1">
          <mxGeometry x="999" y="560" width="150" height="100" as="geometry" />
        </mxCell>
        <mxCell id="_pkvCdZ7tY0LbxpV6T6h-11" value="" style="endArrow=none;dashed=1;html=1;dashPattern=1 3;strokeWidth=3;rounded=0;strokeColor=#FFFFFF;" edge="1" parent="1">
          <mxGeometry width="50" height="50" relative="1" as="geometry">
            <mxPoint x="828.5" y="609.5" as="sourcePoint" />
            <mxPoint x="1011.5" y="609.8546511627908" as="targetPoint" />
          </mxGeometry>
        </mxCell>
        <mxCell id="_pkvCdZ7tY0LbxpV6T6h-12" value="Front-end app" style="image;aspect=fixed;html=1;points=[];align=center;fontSize=12;image=img/lib/azure2/app_services/App_Services.svg;" vertex="1" parent="1">
          <mxGeometry x="503" y="578" width="64" height="64" as="geometry" />
        </mxCell>
        <mxCell id="_pkvCdZ7tY0LbxpV6T6h-14" value="" style="endArrow=none;html=1;rounded=0;strokeColor=#FFFFFF;strokeWidth=2;" edge="1" parent="1">
          <mxGeometry width="50" height="50" relative="1" as="geometry">
            <mxPoint x="690" y="610.14" as="sourcePoint" />
            <mxPoint x="573.5" y="609.4990830945559" as="targetPoint" />
          </mxGeometry>
        </mxCell>
        <mxCell id="_pkvCdZ7tY0LbxpV6T6h-19" value="Internet" style="image;aspect=fixed;perimeter=ellipsePerimeter;html=1;align=center;shadow=0;dashed=0;spacingTop=3;image=img/lib/active_directory/internet_globe.svg;" vertex="1" parent="1">
          <mxGeometry x="510" y="720" width="50" height="50" as="geometry" />
        </mxCell>
        <mxCell id="_pkvCdZ7tY0LbxpV6T6h-20" value="private endpoint" style="image;aspect=fixed;html=1;points=[];align=center;fontSize=12;image=img/lib/azure2/networking/Private_Endpoint.svg;" vertex="1" parent="1">
          <mxGeometry x="1036" y="420" width="72" height="66" as="geometry" />
        </mxCell>
        <mxCell id="_pkvCdZ7tY0LbxpV6T6h-21" value="" style="endArrow=none;html=1;rounded=0;strokeColor=#FFFFFF;strokeWidth=2;" edge="1" parent="1">
          <mxGeometry width="50" height="50" relative="1" as="geometry">
            <mxPoint x="1030.5" y="333.57" as="sourcePoint" />
            <mxPoint x="930" y="332.43" as="targetPoint" />
          </mxGeometry>
        </mxCell>
        <mxCell id="_pkvCdZ7tY0LbxpV6T6h-22" value="" style="endArrow=none;html=1;rounded=0;strokeColor=#FFFFFF;strokeWidth=2;" edge="1" parent="1">
          <mxGeometry width="50" height="50" relative="1" as="geometry">
            <mxPoint x="1072" y="380" as="sourcePoint" />
            <mxPoint x="1072" y="419" as="targetPoint" />
          </mxGeometry>
        </mxCell>
        <mxCell id="_pkvCdZ7tY0LbxpV6T6h-25" value="" style="endArrow=classic;html=1;rounded=0;strokeWidth=2;strokeColor=#FFFFFF;" edge="1" parent="1">
          <mxGeometry width="50" height="50" relative="1" as="geometry">
            <mxPoint x="534.5" y="720" as="sourcePoint" />
            <mxPoint x="534.5" y="670" as="targetPoint" />
          </mxGeometry>
        </mxCell>
        <mxCell id="_pkvCdZ7tY0LbxpV6T6h-27" value="" style="endArrow=none;html=1;rounded=0;strokeColor=#FFFFFF;strokeWidth=2;" edge="1" parent="1">
          <mxGeometry width="50" height="50" relative="1" as="geometry">
            <mxPoint x="1073.5" y="511" as="sourcePoint" />
            <mxPoint x="1073.5" y="550" as="targetPoint" />
          </mxGeometry>
        </mxCell>
        <mxCell id="_pkvCdZ7tY0LbxpV6T6h-28" value="Private DNS zone" style="image;aspect=fixed;html=1;points=[];align=center;fontSize=12;image=img/lib/azure2/networking/DNS_Zones.svg;" vertex="1" parent="1">
          <mxGeometry x="1120" y="360" width="64" height="64" as="geometry" />
        </mxCell>
      </root>
    </mxGraphModel>
  </diagram>
</mxfile>
